PathFileType	4	(X/Y/Z)	T1_P1_Vision_Movement_1_0-686.trc
DataRate	CameraRate	NumFrames	NumMarkers	Units	OrigDataRate	OrigDataStartFrame	OrigNumFrames
60	60	4	27	m	60	171	686
Frame#	Time	RHip			RKnee			RAnkle			RBigToe			RSmallToe			RHeel			LHip			LKnee			LAnkle			LBigToe			LSmallToe			LHeel			Neck			Head			Nose			RShoulder			RElbow			RWrist			RThumb			RIndex			RPinky			LShoulder			LElbow			LWrist			LThumb			LIndex			LPinky		
		X1	Y1	Z1	X2	Y2	Z2	X3	Y3	Z3	X4	Y4	Z4	X5	Y5	Z5	X6	Y6	Z6	X7	Y7	Z7	X8	Y8	Z8	X9	Y9	Z9	X10	Y10	Z10	X11	Y11	Z11	X12	Y12	Z12	X13	Y13	Z13	X14	Y14	Z14	X15	Y15	Z15	X16	Y16	Z16	X17	Y17	Z17	X18	Y18	Z18	X19	Y19	Z19	X20	Y20	Z20	X21	Y21	Z21	X22	Y22	Z22	X23	Y23	Z23	X24	Y24	Z24	X25	Y25	Z25	X26	Y26	Z26	X27	Y27	Z27
172	2.8666666666666667	-82.6492894329469	3901.121355390427	-718.3955669381851	268.4089461400683	3970.747492112471	-662.9844420822913	617.2167820144656	4223.42372963392	-693.6306400206863	687.398305484802	4074.679322298194	-623.5601880892368	697.0277162705412	4152.531337794735	-736.124880893822	660.1042124853032	4306.777666099587	-711.3525840724209	-112.64805593257448	3985.7238444308873	-514.0118023079277	220.0574686274105	4066.639523476467	-502.56814761169494	576.5444471798027	4322.97244353139	-540.4042843537429	654.9262965238885	4156.117895776	-474.55713178233935	631.1002858193164	4233.8233665806265	-421.2699362161796	626.793051502344	4372.230313742983	-567.6878095930774	-695.6887212507157	3776.5627589203923	-621.5480823844813	-936.4087027564816	3658.239739333155	-582.3191737251921	-792.5982802217346	3674.1471046414063	-548.2951873775215	-583.8918136729262	3738.4092602916903	-740.2424406117907	-316.22837885650495	3617.316861940957	-741.558646157408	-435.1361771576425	3504.4458577778523	-528.3086598466729	-546.2426390042941	3494.064572817395	-431.85978072469135	-538.1398191891673	3500.2127498048476	-420.590205380173	-484.12154341177285	3495.108201717568	-430.1584874911747	-628.6639766228623	3895.3081606249407	-515.9989339651078	-402.24487171304196	4071.0712464355174	-479.3769687918944	-143.48523714745602	3995.587681378717	-383.80450143719435	-7.878297187487267	3946.94013362317	-348.4900005433841	19.088697853057443	3986.7551134556575	-349.29516316230365	-3.3005911593894677	4126.341280019392	-375.2936490525739
173	2.8833333333333333	-82.55357610798369	3900.9741154979474	-718.3823852313509	263.1326410956619	3969.0271805171674	-669.9995953421843	623.3672560641384	4228.120666969296	-696.3245777372858	692.6780421244022	4095.5402863472045	-638.8451865695794	697.1472547641267	4152.537831694101	-736.3913168774554	660.4479315099862	4308.205088054992	-714.5059658878533	-112.51882272196889	3985.357005432793	-513.8605826668995	220.11966173230923	4066.5746792301625	-502.53715488040126	578.224977859894	4294.053647776068	-532.9318050603225	650.3439468128993	4125.111892410369	-468.36912401512035	630.932697715439	4233.251333483293	-421.17424123295336	622.0592644595977	4337.819517081775	-559.9490321817527	-695.6407914076874	3776.3682788298797	-621.4397302693392	-931.842349648007	3659.0848464802916	-582.0273385370974	-792.6127169414724	3674.1954333550643	-548.408878118247	-583.9214570447401	3738.470058230073	-740.3205302018646	-316.1897182017513	3617.496620187565	-741.6966965699394	-435.16329298650214	3504.596261006267	-528.3242582739252	-546.2742341749582	3494.2246948681536	-431.82299585258323	-533.6135598286043	3502.5464972429245	-421.418144948352	-483.97612024747946	3495.1412547085374	-430.14359151210476	-628.5635003392538	3895.104162250794	-515.8227326693849	-402.3017431139151	4071.194925472321	-479.37655460006454	-143.57666129379385	3995.899519958968	-383.9696951736366	-8.008322517114296	3946.9390676953108	-348.4976974082591	19.09251507051824	3986.9184124518224	-349.3982493186145	-2.9341514530251693	4126.468523879529	-376.1353239974936
174	2.9	-81.87454109762551	3901.186868795745	-724.5143837479881	272.2985910877858	3991.8515719505353	-685.2220146411395	623.6926378220164	4228.640376391231	-696.2370055872824	687.5490501115326	4074.7945362847686	-623.6919680188829	697.2559024779964	4152.871334269123	-736.4430851443683	661.5218582981018	4286.900741347561	-697.0409145957698	-112.52963503309219	3985.3004454092443	-513.8639434542216	220.16092389976558	4066.5065054981274	-502.48652548043765	582.4465434134206	4326.369612749681	-539.8478351544233	660.0004737915284	4178.662870478311	-490.0800111242498	636.1675922042738	4256.49280666998	-436.2236838953435	626.6038653004682	4371.960376229382	-567.6948527554408	-695.7179158670352	3776.5006142469933	-621.5001606045994	-936.4075974907528	3658.1533630019862	-582.2918456322251	-797.5811034450934	3672.703374622717	-548.5959329341438	-583.8927073774043	3738.356480234848	-740.269199476507	-311.5158803568884	3620.1203107860497	-742.9452228022427	-437.8274829152153	3527.883392410421	-534.2662325114087	-546.3369443565501	3494.4895842953088	-431.8729339534374	-533.6510752273517	3502.471544289047	-421.39308220831174	-484.04968721265647	3495.286617973555	-430.17761871208177	-628.5333120853128	3895.172002330674	-515.8347590469455	-402.22035984019703	4071.1360301330255	-479.33637717278026	-132.68441992001217	3998.6300670455194	-383.10749618020196	-6.537733611195265	3966.09281247295	-361.39089729158286	19.17815114268533	3987.220768321599	-349.6050691818396	-2.7079244829365123	4127.066962290064	-376.3891736362076
175	2.9166666666666665	-82.50851165591097	3900.8056295802908	-718.2552788726364	268.43669571062287	3970.348522570489	-662.7949168040079	617.0634672158986	4223.696152841727	-693.7439903472406	687.0597099553006	4074.1964398901055	-623.4296150919275	696.5914345454584	4151.863111401073	-735.8097934038311	653.8184260977943	4303.038392198129	-711.5287752250506	-111.93991305476685	3956.4287919413364	-507.0119868484341	222.3976604583811	4087.920339406087	-517.386372753801	582.6509675119084	4326.602671695703	-539.9775425320246	655.0462867567134	4156.048985811601	-474.5356765682189	631.3238562450254	4234.003922144121	-421.3822284468312	627.0124703294221	4372.525665818743	-567.8133523789749	-695.611482025615	3776.377572482271	-621.5020491115022	-931.8777031941266	3659.0825791295315	-582.0347379716715	-792.5834120572694	3673.922974897199	-548.2607010417005	-583.8728728712	3738.347561123468	-740.2946214913671	-314.3077101721364	3592.0296015734466	-733.6384707295055	-435.1162284801035	3504.3976927783847	-528.2791654005786	-546.3916715764739	3494.410578486061	-431.8256097094173	-533.7194146632457	3501.8398326298534	-421.2377761420388	-484.1154645279073	3495.213410936222	-430.0970636678864	-628.4786115695982	3895.1418626531918	-515.8735957267475	-399.53267789375536	4041.416335321261	-473.08181661681687	-138.34867462689968	3997.4920013477777	-383.2134329481451	-7.915818623769048	3946.7220999295905	-348.26305013608265	13.779727341888636	3982.6535177634314	-347.53810426912736	1.8886149060642752	4128.898703040643	-375.2896384679625
